<svg width="64" height="64" viewBox="0 0 64 64" fill="none" xmlns="http://www.w3.org/2000/svg">
<path fill-rule="evenodd" clip-rule="evenodd" d="M47.7292 15.9099C46.7529 14.9336 45.17 14.9336 44.1937 15.9099L31.8193 28.2843L19.445 15.9099C18.4686 14.9336 16.8857 14.9336 15.9094 15.9099C14.9331 16.8862 14.9331 18.4691 15.9094 19.4454L28.2838 31.8198L15.9094 44.1942C14.9331 45.1705 14.9331 46.7534 15.9094 47.7297C16.8858 48.706 18.4687 48.706 19.445 47.7297L31.8193 35.3553L44.1937 47.7297C45.17 48.706 46.7529 48.706 47.7292 47.7297C48.7055 46.7534 48.7056 45.1705 47.7292 44.1942L35.3549 31.8198L47.7292 19.4454C48.7055 18.4691 48.7056 16.8862 47.7292 15.9099Z" fill="white"/>
</svg>
